<?xml version="1.0" standalone="no"?>
<!DOCTYPE svg PUBLIC "-//W3C//DTD SVG 20010904//EN"
 "http://www.w3.org/TR/2001/REC-SVG-20010904/DTD/svg10.dtd">
<svg version="1.0" xmlns="http://www.w3.org/2000/svg"
 width="800.000000pt" height="800.000000pt" viewBox="0 0 800.000000 800.000000"
 preserveAspectRatio="xMidYMid meet">
<metadata>
Created by potrace 1.11, written by Peter Selinger 2001-2013
</metadata>
<g transform="translate(0.000000,800.000000) scale(0.100000,-0.100000)"
fill="#000000" stroke="none">
<path d="M3706 7989 c-964 -75 -1849 -482 -2531 -1164 -454 -453 -769 -965
-970 -1570 -302 -910 -267 -1893 99 -2785 61 -148 214 -446 296 -578 657
-1047 1744 -1733 2960 -1867 765 -84 1544 56 2232 401 386 193 720 436 1033
749 453 453 768 963 970 1570 302 907 267 1894 -99 2785 -61 148 -214 446
-296 578 -656 1046 -1736 1728 -2955 1867 -170 19 -576 27 -739 14z m575 -340
c902 -71 1719 -455 2349 -1105 689 -712 1055 -1651 1027 -2639 -3 -115 -11
-253 -17 -305 -82 -707 -345 -1341 -786 -1895 -113 -141 -417 -446 -559 -559
-416 -332 -920 -581 -1418 -701 -280 -67 -483 -93 -782 -102 -869 -24 -1693
252 -2380 798 -167 132 -442 407 -574 574 -337 424 -569 893 -696 1409 -121
491 -137 1037 -45 1546 107 592 364 1148 759 1640 109 137 405 430 552 547
555 442 1228 718 1904 783 61 5 126 12 145 13 84 9 398 6 521 -4z"/>
<path d="M2685 5699 c-263 -36 -539 -144 -754 -297 -361 -256 -608 -648 -682
-1083 -18 -108 -21 -150 -16 -324 5 -209 23 -316 79 -485 140 -425 449 -773
861 -970 182 -87 314 -127 511 -156 227 -33 624 -1 731 59 109 62 116 213 13
278 -28 17 -44 19 -103 15 -38 -2 -108 -12 -155 -21 -116 -23 -373 -23 -500
-1 -283 50 -522 179 -729 391 -244 251 -374 546 -388 881 -7 172 11 295 68
467 142 430 425 713 857 857 183 61 333 84 522 77 120 -4 177 -11 250 -30 196
-51 341 -122 505 -246 90 -69 726 -684 1220 -1180 l260 -261 -266 0 c-147 0
-291 -5 -320 -10 -94 -18 -144 -71 -144 -153 0 -64 28 -108 88 -139 41 -21 51
-21 557 -22 l515 -1 41 23 c83 48 79 20 79 607 0 508 0 521 -21 560 -31 59
-75 85 -143 85 -63 0 -109 -22 -138 -67 -16 -24 -19 -60 -23 -331 l-5 -303
-615 603 c-751 738 -813 796 -931 880 -185 132 -416 234 -637 280 -112 23
-467 33 -587 17z"/>
<path d="M4875 5620 c-109 -14 -260 -51 -301 -74 -79 -45 -104 -126 -62 -205
44 -84 113 -97 288 -55 106 25 399 26 523 1 423 -86 786 -352 975 -716 107
-206 145 -366 145 -611 0 -185 -18 -298 -74 -457 -135 -385 -448 -686 -854
-822 -476 -159 -932 -78 -1320 232 -126 101 -1248 1192 -1349 1312 l-60 70
295 5 c258 4 298 7 327 23 45 25 72 72 72 127 0 62 -28 110 -80 137 l-43 23
-516 0 c-577 0 -564 1 -606 -70 -19 -34 -20 -53 -23 -563 -2 -472 -1 -531 14
-562 23 -49 74 -78 140 -79 58 0 90 16 128 68 20 26 21 42 24 352 2 188 7 324
12 324 5 0 314 -299 687 -664 373 -366 714 -695 758 -731 222 -184 484 -310
768 -367 97 -20 142 -23 337 -23 194 1 239 4 327 23 331 72 629 232 860 461
233 231 383 500 460 821 20 84 26 142 30 285 8 272 -21 442 -118 685 -226 567
-671 918 -1311 1036 -99 18 -355 26 -453 14z"/>
</g>
</svg>
